<svg width="288" height="45" viewBox="0 0 288 45" fill="none" xmlns="http://www.w3.org/2000/svg">
<path d="M13.5 38.5C10.7333 38.5 8.35 37.9333 6.35 36.8C4.38333 35.6333 2.9 34.0667 1.9 32.1C0.9 30.1333 0.4 27.95 0.4 25.55C0.4 23.1167 0.9 20.9167 1.9 18.95C2.9 16.95 4.4 15.3833 6.4 14.25C8.4 13.0833 10.8333 12.5 13.7 12.5C16.2667 12.5 18.5 13.0333 20.4 14.1L19.9 19.1C18.1 18.1667 16.2333 17.7 14.3 17.7C11.9333 17.7 10.0833 18.4167 8.75 19.85C7.41667 21.2833 6.75 23.1833 6.75 25.55C6.75 27.8167 7.43333 29.7 8.8 31.2C10.1667 32.6667 11.9833 33.4 14.25 33.4C16.15 33.4 18.05 32.85 19.95 31.75L20.5 37C19.6 37.4667 18.5333 37.8333 17.3 38.1C16.1 38.3667 14.8333 38.5 13.5 38.5ZM31.7539 38.5C30.1539 38.5 28.6872 38.35 27.3539 38.05C26.0539 37.75 24.7039 37.2833 23.3039 36.65L23.8539 31.35C25.2539 32.1833 26.5539 32.8167 27.7539 33.25C28.9872 33.65 30.2539 33.85 31.5539 33.85C34.0872 33.85 35.3539 33.0167 35.3539 31.35C35.3539 30.45 35.0206 29.7667 34.3539 29.3C33.6872 28.8 32.4872 28.2167 30.7539 27.55C28.2872 26.65 26.4706 25.6333 25.3039 24.5C24.1372 23.3333 23.5539 21.7667 23.5539 19.8C23.5539 17.6333 24.3872 15.8833 26.0539 14.55C27.7206 13.1833 29.9706 12.5 32.8039 12.5C35.6372 12.5 38.2206 13.15 40.5539 14.45L40.0039 19.75C38.7372 18.8833 37.5372 18.2167 36.4039 17.75C35.3039 17.2833 34.1372 17.05 32.9039 17.05C31.8372 17.05 31.0039 17.2667 30.4039 17.7C29.8372 18.1333 29.5539 18.75 29.5539 19.55C29.5539 20.1833 29.7206 20.7 30.0539 21.1C30.4206 21.5 30.9206 21.8667 31.5539 22.2C32.1872 22.5 33.2372 22.9333 34.7039 23.5C37.1372 24.4333 38.8872 25.4667 39.9539 26.6C41.0206 27.7 41.5539 29.1833 41.5539 31.05C41.5539 33.4167 40.7039 35.25 39.0039 36.55C37.3039 37.85 34.8872 38.5 31.7539 38.5ZM53.9465 38.5C51.7465 38.5 50.0798 37.8667 48.9465 36.6C47.8132 35.3 47.2465 33.75 47.2465 31.95V18.1H43.6965L44.2465 13H47.2465V7.5L53.4465 6.85V13H58.9465V18.1H53.4465V29.4C53.4465 30.7333 53.5132 31.6667 53.6465 32.2C53.8132 32.7 54.1298 33.0333 54.5965 33.2C55.0965 33.3333 55.9798 33.4 57.2465 33.4H58.9465L58.3965 38.5H53.9465ZM62.984 3H69.184V9.2H62.984V3ZM62.984 13H69.184V38H62.984V13ZM103.046 12.6C106.379 12.6 108.846 13.6167 110.446 15.65C112.079 17.65 112.896 20.4667 112.896 24.1V38H106.696V24.55C106.696 22.1833 106.329 20.45 105.596 19.35C104.862 18.25 103.662 17.7 101.996 17.7C100.362 17.7 99.129 18.2667 98.2957 19.4C97.4624 20.5 97.0457 22.0667 97.0457 24.1V38H90.8457V24.55C90.8457 22.1833 90.4624 20.45 89.6957 19.35C88.929 18.25 87.7124 17.7 86.0457 17.7C84.079 17.7 82.4624 18.4167 81.1957 19.85V38H74.9957V13H80.2957L80.4957 15C82.7624 13.4 85.2124 12.6 87.8457 12.6C91.0457 12.6 93.429 13.75 94.9957 16.05C95.8624 14.95 96.9957 14.1 98.3957 13.5C99.7957 12.9 101.346 12.6 103.046 12.6ZM130.503 38.5C127.603 38.5 125.119 37.9167 123.053 36.75C121.019 35.55 119.486 33.9667 118.453 32C117.453 30 116.953 27.7833 116.953 25.35C116.953 23.0167 117.436 20.8833 118.403 18.95C119.369 17.0167 120.769 15.4833 122.603 14.35C124.436 13.1833 126.619 12.6 129.153 12.6C131.486 12.6 133.453 13.0833 135.053 14.05C136.686 15.0167 137.903 16.3167 138.703 17.95C139.536 19.5833 139.953 21.4167 139.953 23.45C139.953 24.45 139.819 25.5833 139.553 26.85H123.403C123.736 29.05 124.603 30.7 126.003 31.8C127.403 32.8667 129.086 33.4 131.053 33.4C133.753 33.4 136.253 32.7167 138.553 31.35L138.853 36.6C137.786 37.1667 136.536 37.6333 135.103 38C133.703 38.3333 132.169 38.5 130.503 38.5ZM133.653 22.65C133.653 21.35 133.286 20.2 132.553 19.2C131.819 18.2 130.686 17.7 129.153 17.7C127.619 17.7 126.386 18.15 125.453 19.05C124.519 19.95 123.886 21.15 123.553 22.65H133.653ZM274.019 13H279.819L279.969 15.65C280.702 14.8167 281.636 14.0833 282.769 13.45C283.936 12.8167 285.152 12.5 286.419 12.5C286.819 12.5 287.186 12.5333 287.519 12.6L287.069 18.7C286.436 18.5333 285.719 18.45 284.919 18.45C283.886 18.45 282.936 18.7 282.069 19.2C281.202 19.6667 280.586 20.25 280.219 20.95V38H274.019V13Z" fill="#333333"/>
<path d="M140.885 44.8L148.685 0.499997H161.035L160.085 5.95H150.51L153.885 3.125L146.985 42.175L144.61 39.35H154.185L153.235 44.8H140.885ZM164.365 38.5C162.815 38.5 161.332 38.325 159.915 37.975C158.498 37.6083 157.215 37.1667 156.065 36.65L157.515 31.35C158.498 31.95 159.615 32.5167 160.865 33.05C162.132 33.5833 163.448 33.85 164.815 33.85C166.098 33.85 167.032 33.575 167.615 33.025C168.215 32.475 168.515 31.8 168.515 31C168.515 30.05 168.198 29.3417 167.565 28.875C166.948 28.4083 165.998 27.9667 164.715 27.55C163.582 27.1667 162.565 26.725 161.665 26.225C160.765 25.725 160.057 25.0667 159.54 24.25C159.023 23.4333 158.765 22.3667 158.765 21.05C158.765 19.45 159.165 18.0167 159.965 16.75C160.782 15.4667 161.965 14.4583 163.515 13.725C165.065 12.975 166.965 12.6 169.215 12.6C170.815 12.6 172.24 12.7833 173.49 13.15C174.74 13.5167 175.798 13.95 176.665 14.45L175.315 19.45C174.448 18.8167 173.457 18.2583 172.34 17.775C171.223 17.2917 169.948 17.05 168.515 17.05C167.365 17.05 166.415 17.2667 165.665 17.7C164.932 18.1167 164.565 18.8167 164.565 19.8C164.565 20.8667 165.015 21.6167 165.915 22.05C166.832 22.4833 167.998 22.9667 169.415 23.5C170.598 23.9333 171.59 24.4417 172.39 25.025C173.19 25.5917 173.79 26.3 174.19 27.15C174.607 27.9833 174.815 29.0167 174.815 30.25C174.815 31.3833 174.59 32.45 174.14 33.45C173.707 34.45 173.048 35.3333 172.165 36.1C171.282 36.85 170.19 37.4417 168.89 37.875C167.59 38.2917 166.082 38.5 164.365 38.5ZM187.666 38.5C185.732 38.5 184.074 38.05 182.691 37.15C181.307 36.25 180.249 35.0167 179.516 33.45C178.782 31.8833 178.416 30.1 178.416 28.1C178.416 26.15 178.732 24.2583 179.366 22.425C180.016 20.575 180.949 18.9083 182.166 17.425C183.399 15.9417 184.882 14.7667 186.616 13.9C188.349 13.0333 190.299 12.6 192.466 12.6C193.616 12.6 194.607 12.7417 195.441 13.025C196.274 13.3083 197.016 13.7167 197.666 14.25C198.332 14.7667 198.957 15.3917 199.541 16.125L197.191 17.425L198.966 13H204.366L201.466 30.1C201.332 30.9 201.266 31.5333 201.266 32C201.266 32.7 201.441 33.1083 201.791 33.225C202.157 33.3417 202.799 33.4 203.716 33.4L202.316 38.5C200.749 38.5 199.524 38.4333 198.641 38.3C197.757 38.1833 197.074 37.9583 196.591 37.625C196.107 37.275 195.691 36.7833 195.341 36.15C194.991 35.5 194.566 34.6667 194.066 33.65L196.141 34.575C195.524 35.1417 194.832 35.7333 194.066 36.35C193.299 36.95 192.399 37.4583 191.366 37.875C190.332 38.2917 189.099 38.5 187.666 38.5ZM189.766 33.4C191.149 33.4 192.282 33.0667 193.166 32.4C194.049 31.7333 194.732 30.875 195.216 29.825C195.699 28.775 196.032 27.6833 196.216 26.55C196.416 25.4 196.516 24.35 196.516 23.4C196.516 21.65 196.166 20.2667 195.466 19.25C194.766 18.2167 193.616 17.7 192.016 17.7C190.599 17.7 189.349 18.1333 188.266 19C187.199 19.8667 186.366 21.0333 185.766 22.5C185.166 23.95 184.866 25.55 184.866 27.3C184.866 29.1167 185.249 30.5917 186.016 31.725C186.799 32.8417 188.049 33.4 189.766 33.4ZM212.975 38L208.125 13H214.175L217.325 33.15L215.55 32.85L225.775 13H231.775L218.075 38H212.975ZM237.155 23.625C237.738 23.775 238.255 23.875 238.705 23.925C239.171 23.975 239.688 24 240.255 24C242.288 24 243.863 23.8167 244.98 23.45C246.113 23.0667 246.896 22.5833 247.33 22C247.78 21.4 248.005 20.7833 248.005 20.15C248.005 19.4 247.796 18.85 247.38 18.5C246.98 18.15 246.521 17.9333 246.005 17.85C245.505 17.75 245.105 17.7 244.805 17.7C243.455 17.7 242.296 18.075 241.33 18.825C240.363 19.575 239.588 20.45 239.005 21.45C238.438 22.45 238.063 23.325 237.88 24.075L237.43 27.175C237.446 28.7083 237.73 29.9333 238.28 30.85C238.846 31.75 239.571 32.4 240.455 32.8C241.338 33.2 242.255 33.4 243.205 33.4C244.705 33.4 246.121 33.2 247.455 32.8C248.788 32.4 249.988 31.9167 251.055 31.35L250.355 36.6C249.338 37.15 248.113 37.6083 246.68 37.975C245.263 38.325 243.705 38.5 242.005 38.5C239.471 38.5 237.388 38.025 235.755 37.075C234.121 36.1083 232.913 34.8167 232.13 33.2C231.346 31.5667 230.955 29.75 230.955 27.75C230.955 25.8333 231.288 23.975 231.955 22.175C232.621 20.375 233.571 18.7583 234.805 17.325C236.038 15.875 237.521 14.725 239.255 13.875C240.988 13.025 242.921 12.6 245.055 12.6C247.705 12.6 249.721 13.2667 251.105 14.6C252.505 15.9167 253.205 17.6667 253.205 19.85C253.205 21.3667 252.88 22.65 252.23 23.7C251.58 24.75 250.688 25.6 249.555 26.25C248.438 26.8833 247.163 27.3417 245.73 27.625C244.313 27.9083 242.821 28.05 241.255 28.05C240.338 28.05 239.488 28.0083 238.705 27.925C237.921 27.8417 237.28 27.7333 236.78 27.6L237.155 23.625ZM251.069 44.8L252.019 39.35H257.919L263.819 5.95H257.919L258.869 0.499997H270.419L262.619 44.8H251.069Z" fill="#3498DB"/>
</svg>
